<?xml version="1.0" encoding="UTF-8" standalone="no"?>
<!-- Created with Inkscape (http://www.inkscape.org/) -->

<svg
   xmlns:dc="http://purl.org/dc/elements/1.1/"
   xmlns:cc="http://creativecommons.org/ns#"
   xmlns:rdf="http://www.w3.org/1999/02/22-rdf-syntax-ns#"
   xmlns:svg="http://www.w3.org/2000/svg"
   xmlns="http://www.w3.org/2000/svg"
   xmlns:sodipodi="http://sodipodi.sourceforge.net/DTD/sodipodi-0.dtd"
   xmlns:inkscape="http://www.inkscape.org/namespaces/inkscape"
   width="96.674866mm"
   height="22.994055mm"
   viewBox="0 0 96.674866 22.994055"
   version="1.1"
   id="svg2356"
   inkscape:version="0.92.4 (5da689c313, 2019-01-14)"
   sodipodi:docname="opencloset-logo-02.svg">
  <defs
     id="defs2350" />
  <sodipodi:namedview
     id="base"
     pagecolor="#ffffff"
     bordercolor="#666666"
     borderopacity="1.0"
     inkscape:pageopacity="0.0"
     inkscape:pageshadow="2"
     inkscape:zoom="0.35"
     inkscape:cx="-357.30734"
     inkscape:cy="-153.68951"
     inkscape:document-units="mm"
     inkscape:current-layer="layer1"
     showgrid="false"
     inkscape:window-width="2560"
     inkscape:window-height="1021"
     inkscape:window-x="0"
     inkscape:window-y="27"
     inkscape:window-maximized="1" />
  <metadata
     id="metadata2353">
    <rdf:RDF>
      <cc:Work
         rdf:about="">
        <dc:format>image/svg+xml</dc:format>
        <dc:type
           rdf:resource="http://purl.org/dc/dcmitype/StillImage" />
        <dc:title></dc:title>
      </cc:Work>
    </rdf:RDF>
  </metadata>
  <g
     inkscape:label="Layer 1"
     inkscape:groupmode="layer"
     id="layer1"
     transform="translate(-39.353043,-85.175596)">
    <g
       transform="matrix(0.35277777,0,0,-0.35277777,-0.19839021,271.52054)"
       id="g1512">
      <g
         transform="translate(145.7334,521.8096)"
         id="g958">
        <path
           inkscape:connector-curvature="0"
           id="path960"
           style="fill:#ffcb04;fill-opacity:1;fill-rule:nonzero;stroke:none"
           d="m 0,0 c -3.608,0 -6.979,-0.695 -10.113,-2.081 -3.137,-1.389 -5.868,-3.261 -8.199,-5.619 -2.331,-2.359 -4.162,-5.133 -5.495,-8.323 -1.33,-3.192 -1.997,-6.563 -1.997,-10.114 0,-3.494 0.694,-6.784 2.082,-9.864 1.385,-3.079 3.258,-5.77 5.618,-8.074 2.358,-2.302 5.091,-4.12 8.199,-5.451 3.108,-1.333 6.409,-1.999 9.905,-1.999 3.496,0 6.812,0.666 9.946,1.999 3.134,1.331 5.882,3.163 8.24,5.494 2.359,2.33 4.232,5.062 5.619,8.198 1.387,3.134 2.081,6.479 2.081,10.03 0,3.496 -0.679,6.812 -2.038,9.947 -1.362,3.135 -3.22,5.881 -5.577,8.24 -2.36,2.358 -5.106,4.216 -8.241,5.577 C 6.894,-0.68 3.55,0 0,0" />
      </g>
      <g
         transform="translate(130.6968,519.5864)"
         id="g962">
        <path
           inkscape:connector-curvature="0"
           id="path964"
           style="fill:#000000;fill-opacity:1;fill-rule:nonzero;stroke:none"
           d="m 0,0 7.448,4.091 6.417,-9.51 -10.114,-7.606 z" />
      </g>
      <g
         transform="translate(159.0879,519.5864)"
         id="g966">
        <path
           inkscape:connector-curvature="0"
           id="path968"
           style="fill:#000000;fill-opacity:1;fill-rule:nonzero;stroke:none"
           d="m 0,0 -7.445,4.091 -6.419,-9.51 10.113,-7.606 z" />
      </g>
      <g
         transform="translate(145.0103,512.4565)"
         id="g970">
        <path
           inkscape:connector-curvature="0"
           id="path972"
           style="fill:#000000;fill-opacity:1;fill-rule:nonzero;stroke:none"
           d="M 0,0 -5.196,-3.734 -2.06,-9.977 H 0 2.062 l 3.136,6.243 z" />
      </g>
      <g
         transform="translate(145.0103,472.3062)"
         id="g974">
        <path
           inkscape:connector-curvature="0"
           id="path976"
           style="fill:#000000;fill-opacity:1;fill-rule:nonzero;stroke:none"
           d="M 0,0 -7.382,7.739 -2.06,30.174 H 0 2.062 L 7.856,7.739 Z" />
      </g>
      <g
         transform="translate(145.6943,521.8789)"
         id="g978">
        <path
           inkscape:connector-curvature="0"
           id="path980"
           style="fill:#000000;fill-opacity:1;fill-rule:nonzero;stroke:none"
           d="m 0,0 c -3.609,0 -6.979,-0.694 -10.115,-2.08 -3.135,-1.39 -5.867,-3.261 -8.198,-5.619 -2.331,-2.359 -4.161,-5.134 -5.494,-8.324 -1.331,-3.192 -1.998,-6.563 -1.998,-10.114 0,-3.494 0.693,-6.783 2.082,-9.864 1.386,-3.079 3.258,-5.77 5.618,-8.073 2.357,-2.302 5.09,-4.12 8.199,-5.451 3.107,-1.335 6.409,-1.999 9.906,-1.999 3.495,0 6.811,0.664 9.946,1.999 3.135,1.331 5.881,3.163 8.24,5.494 2.357,2.328 4.232,5.061 5.619,8.197 1.386,3.135 2.081,6.479 2.081,10.03 0,3.496 -0.679,6.812 -2.04,9.947 -1.361,3.135 -3.219,5.882 -5.576,8.241 C 15.91,-5.259 13.164,-3.4 10.028,-2.04 6.894,-0.68 3.549,0 0,0 m -0.38,-58.837 c -4.405,0 -8.606,0.84 -12.602,2.52 -3.998,1.68 -7.518,3.968 -10.56,6.866 -3.041,2.896 -5.475,6.314 -7.3,10.254 -1.825,3.941 -2.738,8.141 -2.738,12.602 0,4.577 0.869,8.878 2.607,12.907 1.738,4.026 4.113,7.517 7.127,10.471 3.011,2.956 6.532,5.288 10.559,6.997 4.027,1.708 8.328,2.563 12.907,2.563 4.518,0 8.79,-0.84 12.818,-2.52 4.026,-1.681 7.561,-3.984 10.603,-6.907 3.042,-2.929 5.46,-6.376 7.256,-10.344 1.795,-3.969 2.695,-8.243 2.695,-12.819 0,-4.519 -0.9,-8.764 -2.695,-12.732 -1.796,-3.97 -4.214,-7.431 -7.256,-10.385 -3.042,-2.956 -6.577,-5.273 -10.603,-6.953 -4.028,-1.68 -8.3,-2.52 -12.818,-2.52" />
      </g>
      <g
         transform="translate(212.5229,509.9966)"
         id="g982">
        <path
           inkscape:connector-curvature="0"
           id="path984"
           style="fill:#000000;fill-opacity:1;fill-rule:nonzero;stroke:none"
           d="M 0,0 C 0,-0.837 -0.095,-1.693 -0.285,-2.567 H 8.442 V 2.11 h -8.67 C -0.152,1.768 -0.095,1.416 -0.057,1.055 -0.02,0.693 0,0.342 0,0 m -15.515,-39.187 v 14.146 H 8.499 v 3.936 h -24.014 v 5.077 H 14.66 V -29.946 H -9.412 v -4.107 h 25.327 v -5.134 z M -20.934,0 c 0,-1.027 0.19,-1.978 0.571,-2.852 0.38,-0.876 0.903,-1.626 1.569,-2.253 0.664,-0.628 1.444,-1.123 2.338,-1.483 0.893,-0.362 1.854,-0.542 2.881,-0.542 2.015,0 3.744,0.665 5.19,1.996 1.445,1.369 2.168,3.08 2.168,5.134 0,2.053 -0.723,3.745 -2.168,5.077 -1.446,1.368 -3.175,2.053 -5.19,2.053 -1.027,0 -1.988,-0.181 -2.881,-0.542 C -17.35,6.226 -18.13,5.732 -18.794,5.105 -19.46,4.478 -19.983,3.726 -20.363,2.852 -20.744,1.977 -20.934,1.026 -20.934,0 m -6.217,0 c 0,1.749 0.351,3.365 1.055,4.848 0.703,1.484 1.663,2.776 2.881,3.879 1.255,1.064 2.69,1.911 4.306,2.538 1.616,0.628 3.394,0.942 5.334,0.942 1.862,0 3.612,-0.314 5.247,-0.942 1.635,-0.627 3.08,-1.474 4.335,-2.538 0.533,-0.456 1.046,-1.008 1.54,-1.654 V 7.358 H 8.442 v 5.761 H 14.66 V -13.747 H 8.442 v 5.933 H -2.453 v 0.684 c -0.228,-0.305 -0.465,-0.59 -0.713,-0.856 -0.247,-0.266 -0.522,-0.533 -0.827,-0.798 -1.255,-1.066 -2.7,-1.903 -4.335,-2.51 -1.635,-0.609 -3.385,-0.913 -5.247,-0.913 -1.94,0 -3.718,0.304 -5.334,0.913 -1.616,0.607 -3.051,1.444 -4.306,2.51 -1.218,1.102 -2.178,2.386 -2.881,3.85 -0.704,1.463 -1.055,3.109 -1.055,4.934" />
      </g>
      <path
         inkscape:connector-curvature="0"
         id="path986"
         style="fill:#000000;fill-opacity:1;fill-rule:nonzero;stroke:none"
         d="m 271.845,523.116 h 6.16 V 486.04 h -6.16 z m 7.301,-51.109 h -31.657 v 16.086 h 6.274 v -10.895 h 25.383 z m -41.639,37.647 h 16.541 v 5.875 h -16.541 v 5.248 h 22.531 v -16.371 h -16.371 v -6.16 c 4.03,-0.038 8.09,0.095 12.178,0.4 4.088,0.303 8.033,0.798 11.836,1.482 l 0.741,-5.076 c -4.03,-0.761 -8.641,-1.312 -13.832,-1.655 -5.191,-0.341 -10.885,-0.475 -17.083,-0.398 z" />
      <g
         transform="translate(317.5908,511.6504)"
         id="g988">
        <path
           inkscape:connector-curvature="0"
           id="path990"
           style="fill:#000000;fill-opacity:1;fill-rule:nonzero;stroke:none"
           d="m 0,0 c 0,0.836 -0.199,1.645 -0.599,2.424 -0.399,0.78 -0.961,1.455 -1.682,2.025 -0.723,0.571 -1.598,1.027 -2.624,1.369 -1.028,0.343 -2.168,0.514 -3.423,0.514 -2.548,0 -4.583,-0.647 -6.104,-1.94 C -15.991,3.137 -16.77,1.673 -16.77,0 c 0,-0.875 0.2,-1.692 0.599,-2.453 0.4,-0.761 0.97,-1.425 1.711,-1.996 0.742,-0.571 1.635,-1.018 2.682,-1.341 1.045,-0.323 2.195,-0.484 3.45,-0.484 1.255,0 2.395,0.161 3.423,0.484 1.026,0.323 1.901,0.77 2.624,1.341 0.721,0.571 1.283,1.235 1.682,1.996 C -0.199,-1.692 0,-0.875 0,0 m -5.134,-24.584 c 0,-1.483 0.466,-2.891 1.398,-4.221 0.931,-1.332 2.139,-2.529 3.622,-3.594 1.52,-1.141 3.213,-2.081 5.077,-2.823 1.862,-0.742 3.725,-1.302 5.59,-1.683 l -3.309,-4.563 c -1.825,0.456 -3.565,1.018 -5.219,1.682 -1.654,0.666 -3.166,1.455 -4.535,2.368 -1.369,0.913 -2.566,1.873 -3.594,2.88 -1.026,1.008 -1.825,2.025 -2.395,3.052 -1.218,-2.091 -3.232,-4.069 -6.046,-5.932 -1.369,-0.913 -2.872,-1.702 -4.507,-2.368 -1.635,-0.664 -3.365,-1.226 -5.19,-1.682 l -3.309,4.563 c 1.825,0.381 3.67,0.941 5.533,1.683 1.863,0.742 3.556,1.682 5.077,2.823 1.483,1.065 2.7,2.262 3.651,3.594 0.95,1.33 1.426,2.738 1.426,4.221 v 2.795 h 6.73 z m -27.322,5.305 v 5.133 h 20.877 v 2.738 c -3.043,0.456 -5.515,1.502 -7.415,3.137 -2.738,2.168 -4.108,4.924 -4.108,8.271 0,1.635 0.362,3.166 1.084,4.592 0.722,1.426 1.749,2.652 3.08,3.679 1.292,1.027 2.843,1.844 4.649,2.453 1.807,0.608 3.794,0.912 5.961,0.912 2.091,0 4.04,-0.304 5.847,-0.912 C -0.676,10.115 0.874,9.298 2.168,8.271 3.46,7.244 4.478,6.018 5.219,4.592 5.961,3.166 6.331,1.635 6.331,0 6.331,-1.635 5.979,-3.157 5.276,-4.563 4.572,-5.97 3.574,-7.207 2.281,-8.271 0.266,-9.944 -2.281,-11.009 -5.361,-11.465 v -2.681 h 20.819 v -5.133 z" />
      </g>
      <g
         transform="translate(386.1533,505.6045)"
         id="g992">
        <path
           inkscape:connector-curvature="0"
           id="path994"
           style="fill:#000000;fill-opacity:1;fill-rule:nonzero;stroke:none"
           d="m 0,0 h -8.042 v -12.036 h -6.161 v 29.547 h 6.161 V 5.248 H 0 Z m -22.417,-17.911 c -1.026,0 -1.996,-0.162 -2.908,-0.485 -0.913,-0.323 -1.712,-0.77 -2.397,-1.34 -0.684,-0.571 -1.225,-1.246 -1.625,-2.025 -0.399,-0.78 -0.599,-1.626 -0.599,-2.538 0,-0.99 0.2,-1.874 0.599,-2.653 0.4,-0.778 0.941,-1.444 1.625,-1.996 0.685,-0.551 1.484,-0.979 2.397,-1.283 0.912,-0.305 1.882,-0.457 2.908,-0.457 1.027,0 1.997,0.152 2.909,0.457 0.913,0.304 1.712,0.732 2.397,1.283 0.683,0.552 1.225,1.218 1.625,1.996 0.399,0.779 0.598,1.663 0.598,2.653 0,0.912 -0.199,1.758 -0.598,2.538 -0.4,0.779 -0.942,1.454 -1.625,2.025 -0.685,0.57 -1.484,1.017 -2.397,1.34 -0.912,0.323 -1.882,0.485 -2.909,0.485 m 0,5.305 c 1.749,0 3.451,-0.267 5.105,-0.799 1.655,-0.533 3.128,-1.293 4.421,-2.281 1.292,-0.99 2.329,-2.216 3.109,-3.679 0.779,-1.465 1.17,-3.109 1.17,-4.934 0,-1.826 -0.391,-3.47 -1.17,-4.934 -0.78,-1.464 -1.817,-2.69 -3.109,-3.68 -1.293,-0.988 -2.766,-1.748 -4.421,-2.281 -1.654,-0.532 -3.356,-0.799 -5.105,-0.799 -1.749,0 -3.45,0.267 -5.104,0.799 -1.655,0.533 -3.129,1.293 -4.421,2.281 -1.293,0.99 -2.33,2.216 -3.109,3.68 -0.78,1.464 -1.17,3.108 -1.17,4.934 0,1.825 0.39,3.469 1.17,4.934 0.779,1.463 1.816,2.689 3.109,3.679 1.292,0.988 2.766,1.748 4.421,2.281 1.654,0.532 3.355,0.799 5.104,0.799 m 0.571,1.711 c -2.776,1.141 -5.239,2.585 -7.386,4.335 -2.15,1.749 -3.737,3.517 -4.764,5.305 -1.065,-2.016 -2.681,-3.984 -4.848,-5.904 -2.168,-1.921 -4.659,-3.565 -7.472,-4.934 l -3.936,4.392 c 1.711,0.875 3.346,1.835 4.905,2.881 1.559,1.046 2.928,2.224 4.107,3.536 1.178,1.312 2.12,2.767 2.824,4.364 0.703,1.597 1.055,3.384 1.055,5.362 V 9.583 H -47.4 v 5.304 h 26.695 V 9.583 H -30.744 V 8.556 c 0,-1.826 0.332,-3.49 0.998,-4.991 0.665,-1.503 1.577,-2.862 2.738,-4.079 1.159,-1.217 2.51,-2.319 4.05,-3.308 1.54,-0.989 3.184,-1.882 4.934,-2.681 z" />
      </g>
    </g>
  </g>
</svg>
